<svg width="25" height="24" viewBox="0 0 25 24" fill="none" xmlns="http://www.w3.org/2000/svg">
<mask id="mask0_284_41" style="mask-type:alpha" maskUnits="userSpaceOnUse" x="0" y="0" width="25" height="24">
<rect x="24.5" y="24" width="24" height="24" transform="rotate(-180 24.5 24)" fill="#D9D9D9"/>
</mask>
<g mask="url(#mask0_284_41)">
<path d="M16.675 11.0002L11.775 6.10019C11.575 5.9002 11.4792 5.66686 11.4875 5.4002C11.4958 5.13353 11.6 4.9002 11.8 4.7002C12 4.51686 12.2333 4.42103 12.5 4.41269C12.7667 4.40436 13 4.5002 13.2 4.7002L19.8 11.3002C19.9 11.4002 19.9708 11.5085 20.0125 11.6252C20.0542 11.7419 20.075 11.8669 20.075 12.0002C20.075 12.1335 20.0542 12.2585 20.0125 12.3752C19.9708 12.4919 19.9 12.6002 19.8 12.7002L13.2 19.3002C13.0167 19.4835 12.7875 19.5752 12.5125 19.5752C12.2375 19.5752 12 19.4835 11.8 19.3002C11.6 19.1002 11.5 18.8627 11.5 18.5877C11.5 18.3127 11.6 18.0752 11.8 17.8752L16.675 13.0002L5.50001 13.0002C5.21668 13.0002 4.97918 12.9044 4.78751 12.7127C4.59585 12.521 4.50001 12.2835 4.50001 12.0002C4.50001 11.7169 4.59585 11.4794 4.78751 11.2877C4.97918 11.096 5.21668 11.0002 5.50001 11.0002L16.675 11.0002Z" fill="white"/>
</g>
</svg>
