<svg width="225" height="44" viewBox="0 0 225 44" fill="none" xmlns="http://www.w3.org/2000/svg">
<path d="M7.94373 23.9717L24.4425 40.4709" stroke="#436FC0" stroke-width="2"/>
<path d="M22.5273 23.0005L22.5273 7.4449" stroke="#436FC0" stroke-width="2"/>
<path d="M9.04449 34.6698C8.65397 35.0604 8.65397 35.6935 9.04449 36.0841C9.43501 36.4746 10.0682 36.4746 10.4587 36.0841L9.04449 34.6698ZM22.8327 23.7097L23.5398 23.0026L22.1256 21.5883L21.4185 22.2954L22.8327 23.7097ZM9.75159 35.377L10.4587 36.0841L22.8327 23.7097L22.1256 23.0026L21.4185 22.2954L9.04449 34.6698L9.75159 35.377Z" fill="#436FC0"/>
<path d="M24.4718 7.44434L40.9705 23.9435" stroke="#1B2C4D" stroke-width="2"/>
<path d="M2.22882 25.7991C4.31158 27.8819 7.68842 27.8819 9.77118 25.7991C11.854 23.7163 11.854 20.3394 9.77118 18.2565C7.68842 16.1737 4.31158 16.1737 2.22882 18.2565C0.146048 20.3394 0.146048 23.7163 2.22882 25.7991ZM18.7276 9.29993C20.8103 11.3828 24.1872 11.3828 26.2699 9.29993C28.3527 7.2171 28.3527 3.84018 26.2699 1.75735C24.1872 -0.325474 20.8103 -0.325474 18.7276 1.75735C16.6448 3.84018 16.6448 7.2171 18.7276 9.29993ZM6 22.0278L6.7071 22.7349L23.2058 6.23575L22.4987 5.52864L21.7916 4.82152L5.2929 21.3207L6 22.0278Z" fill="#436FC0"/>
<path d="M18.7562 42.327C20.8389 44.4098 24.2158 44.4098 26.2985 42.327C28.3813 40.2441 28.3813 36.8672 26.2985 34.7844C24.2158 32.7016 20.8389 32.7016 18.7562 34.7844C16.6734 36.8672 16.6734 40.2441 18.7562 42.327ZM35.2549 25.8278C37.3377 27.9106 40.7145 27.9106 42.7973 25.8278C44.88 23.7449 44.88 20.368 42.7973 18.2852C40.7145 16.2024 37.3377 16.2024 35.2549 18.2852C33.1721 20.368 33.1721 23.7449 35.2549 25.8278ZM22.5273 38.5557L23.2344 39.2628L39.7332 22.7636L39.0261 22.0565L38.319 21.3494L21.8202 37.8485L22.5273 38.5557Z" fill="#1B2C4D"/>
<path d="M68.4882 23.6211C68.1236 23.612 67.6678 23.6074 67.121 23.6074C66.5741 23.5983 65.9771 23.5892 65.33 23.5801C64.6919 23.571 64.022 23.5664 63.3202 23.5664C62.6275 23.5573 61.9484 23.5527 61.2831 23.5527C60.6177 23.5436 59.9843 23.5436 59.3827 23.5527C58.7811 23.5618 58.257 23.5755 57.8104 23.5938V27.6543C57.8104 28.429 57.8195 29.1081 57.8378 29.6914C57.8651 30.2656 57.8925 30.7624 57.9198 31.1816C57.9563 31.6009 57.9973 31.9518 58.0428 32.2344C58.0975 32.5169 58.1522 32.7539 58.2069 32.9453V33H54.9257V32.9453C54.9803 32.7539 55.0305 32.5169 55.076 32.2344C55.1307 31.9518 55.1763 31.6009 55.2128 31.1816C55.2492 30.7624 55.2766 30.2656 55.2948 29.6914C55.313 29.1081 55.3221 28.429 55.3221 27.6543V18.7539C55.3221 17.9792 55.313 17.3047 55.2948 16.7305C55.2766 16.1471 55.2492 15.6458 55.2128 15.2266C55.1763 14.7982 55.1307 14.4427 55.076 14.1602C55.0305 13.8776 54.9803 13.6406 54.9257 13.4492V13.3945H58.2069V13.4492C58.1522 13.6406 58.0975 13.8776 58.0428 14.1602C57.9973 14.4427 57.9563 14.7982 57.9198 15.2266C57.8925 15.6458 57.8651 16.1471 57.8378 16.7305C57.8195 17.3047 57.8104 17.9792 57.8104 18.7539V22.2539C58.2844 22.2721 58.8221 22.2858 59.4237 22.2949C60.0253 22.2949 60.6542 22.2949 61.3104 22.2949C61.9667 22.2858 62.632 22.2767 63.3065 22.2676C63.9901 22.2585 64.6464 22.2493 65.2753 22.2402C65.9133 22.222 66.5057 22.2038 67.0526 22.1855C67.6086 22.1673 68.0871 22.1491 68.4882 22.1309V18.7539C68.4882 17.9792 68.4745 17.3047 68.4471 16.7305C68.4289 16.1471 68.4016 15.6458 68.3651 15.2266C68.3378 14.7982 68.2968 14.4427 68.2421 14.1602C68.1965 13.8776 68.1464 13.6406 68.0917 13.4492V13.3945H71.3729V13.4492C71.3182 13.6406 71.2635 13.8776 71.2089 14.1602C71.1633 14.4427 71.1223 14.7982 71.0858 15.2266C71.0494 15.6458 71.022 16.1471 71.0038 16.7305C70.9856 17.3047 70.9764 17.9792 70.9764 18.7539V27.6543C70.9764 28.429 70.9856 29.1081 71.0038 29.6914C71.022 30.2656 71.0494 30.7624 71.0858 31.1816C71.1223 31.6009 71.1633 31.9518 71.2089 32.2344C71.2635 32.5169 71.3182 32.7539 71.3729 32.9453V33H68.0917V32.9453C68.1464 32.7539 68.1965 32.5169 68.2421 32.2344C68.2968 31.9518 68.3378 31.6009 68.3651 31.1816C68.4016 30.7624 68.4289 30.2656 68.4471 29.6914C68.4745 29.1081 68.4882 28.429 68.4882 27.6543V23.6211ZM75.5292 24.3457C75.5292 23.571 75.5155 22.8965 75.4882 22.3223C75.4699 21.7389 75.4426 21.2376 75.4061 20.8184C75.3788 20.3991 75.3378 20.0482 75.2831 19.7656C75.2375 19.4831 75.1874 19.2461 75.1327 19.0547V19H78.2909V19.0547C78.2362 19.2461 78.1861 19.4831 78.1405 19.7656C78.0949 20.0482 78.0539 20.3991 78.0175 20.8184C77.981 21.2376 77.9537 21.7389 77.9354 22.3223C77.9172 22.8965 77.9081 23.571 77.9081 24.3457V27.6543C77.9081 28.429 77.9172 29.1081 77.9354 29.6914C77.9537 30.2656 77.981 30.7624 78.0175 31.1816C78.0539 31.6009 78.0949 31.9518 78.1405 32.2344C78.1861 32.5169 78.2362 32.7539 78.2909 32.9453V33H75.1327V32.9453C75.1874 32.7539 75.2375 32.5169 75.2831 32.2344C75.3378 31.9518 75.3788 31.6009 75.4061 31.1816C75.4426 30.7624 75.4699 30.2656 75.4882 29.6914C75.5155 29.1081 75.5292 28.429 75.5292 27.6543V24.3457ZM75.2421 14.8574C75.2421 14.6569 75.2785 14.4701 75.3514 14.2969C75.4335 14.1146 75.5383 13.9596 75.6659 13.832C75.7935 13.6953 75.9439 13.5905 76.1171 13.5176C76.2994 13.4355 76.4953 13.3945 76.705 13.3945C76.9146 13.3945 77.106 13.4355 77.2792 13.5176C77.4615 13.5905 77.6164 13.6953 77.744 13.832C77.8807 13.9596 77.9856 14.1146 78.0585 14.2969C78.1405 14.4701 78.1815 14.6569 78.1815 14.8574C78.1815 15.2767 78.0402 15.6276 77.7577 15.9102C77.4751 16.1927 77.1242 16.334 76.705 16.334C76.4953 16.334 76.2994 16.2975 76.1171 16.2246C75.9439 16.1426 75.7935 16.0378 75.6659 15.9102C75.5383 15.7734 75.4335 15.6185 75.3514 15.4453C75.2785 15.263 75.2421 15.0671 75.2421 14.8574ZM82.201 17.9062C82.201 17.1315 82.1874 16.457 82.16 15.8828C82.1418 15.2995 82.1145 14.7982 82.078 14.3789C82.0507 13.9596 82.0096 13.6087 81.955 13.3262C81.9094 13.0436 81.8593 12.8066 81.8046 12.6152V12.5605H84.9628V12.6152C84.9081 12.8066 84.858 13.0436 84.8124 13.3262C84.7668 13.6087 84.7258 13.9596 84.6893 14.3789C84.6529 14.7982 84.6255 15.2995 84.6073 15.8828C84.5891 16.457 84.58 17.1315 84.58 17.9062V24.7148L89.0507 20.709C89.8345 20.0254 90.2264 19.4557 90.2264 19H93.3983V19.0547C93.1613 19.1276 92.9335 19.2233 92.7147 19.3418C92.5051 19.4512 92.2909 19.5833 92.0721 19.7383C91.8625 19.8932 91.6392 20.071 91.4022 20.2715C91.1744 20.4629 90.9237 20.6816 90.6503 20.9277L86.6444 24.5781L92.1405 31.0723C92.3046 31.2728 92.4823 31.4779 92.6737 31.6875C92.8651 31.888 93.0565 32.0749 93.2479 32.248C93.4393 32.4212 93.6262 32.5716 93.8085 32.6992C93.9908 32.8268 94.1594 32.9089 94.3143 32.9453V33H90.3495C90.3495 32.763 90.2857 32.5169 90.1581 32.2617C90.0396 32.0065 89.8208 31.6829 89.5018 31.291L84.58 25.4395V27.6543C84.58 28.429 84.5891 29.1081 84.6073 29.6914C84.6255 30.2656 84.6529 30.7624 84.6893 31.1816C84.7258 31.6009 84.7668 31.9518 84.8124 32.2344C84.858 32.5169 84.9081 32.7539 84.9628 32.9453V33H81.8046V32.9453C81.8593 32.7539 81.9094 32.5169 81.955 32.2344C82.0096 31.9518 82.0507 31.6009 82.078 31.1816C82.1145 30.7624 82.1418 30.2656 82.16 29.6914C82.1874 29.1081 82.201 28.429 82.201 27.6543V17.9062ZM94.3964 25.9727C94.3964 24.9427 94.5878 23.9902 94.9706 23.1152C95.3534 22.2311 95.8775 21.4655 96.5428 20.8184C97.2173 20.1712 98.0103 19.6654 98.9218 19.3008C99.8332 18.9362 100.813 18.7539 101.861 18.7539C102.891 18.7539 103.857 18.9271 104.76 19.2734C105.671 19.6107 106.464 20.0938 107.139 20.7227C107.813 21.3516 108.342 22.1172 108.724 23.0195C109.116 23.9219 109.312 24.9336 109.312 26.0547C109.312 26.9935 109.148 27.8958 108.82 28.7617C108.492 29.6276 108.009 30.3932 107.371 31.0586C106.733 31.724 105.949 32.2572 105.019 32.6582C104.099 33.0501 103.037 33.2461 101.834 33.2461C100.813 33.2461 99.8514 33.0775 98.9491 32.7402C98.0468 32.403 97.2583 31.9199 96.5839 31.291C95.9094 30.6621 95.3762 29.901 94.9843 29.0078C94.5923 28.1055 94.3964 27.0938 94.3964 25.9727ZM102.148 32.248C102.795 32.248 103.388 32.1204 103.926 31.8652C104.473 31.61 104.942 31.2409 105.334 30.7578C105.726 30.2747 106.031 29.6868 106.25 28.9941C106.469 28.3014 106.578 27.5176 106.578 26.6426C106.578 25.6582 106.473 24.7467 106.264 23.9082C106.054 23.0605 105.739 22.3314 105.32 21.7207C104.91 21.1009 104.391 20.6178 103.762 20.2715C103.133 19.9251 102.399 19.752 101.56 19.752C100.913 19.752 100.321 19.8796 99.7831 20.1348C99.2453 20.3809 98.7759 20.7409 98.3749 21.2148C97.983 21.6888 97.6776 22.2721 97.4589 22.9648C97.2401 23.6484 97.1307 24.4277 97.1307 25.3027C97.1307 26.2871 97.2356 27.2031 97.4452 28.0508C97.6639 28.8984 97.983 29.6367 98.4022 30.2656C98.8215 30.8854 99.341 31.373 99.9608 31.7285C100.59 32.0749 101.319 32.248 102.148 32.248ZM112.389 24.3457C112.389 23.571 112.375 22.8965 112.348 22.3223C112.329 21.7389 112.302 21.2376 112.266 20.8184C112.238 20.3991 112.197 20.0482 112.142 19.7656C112.097 19.4831 112.047 19.2461 111.992 19.0547V19H115.15V19.0547C115.077 19.2643 115.014 19.5195 114.959 19.8203C114.913 20.1211 114.877 20.5085 114.849 20.9824C115.187 20.6999 115.538 20.4219 115.902 20.1484C116.267 19.875 116.641 19.6335 117.023 19.4238C117.406 19.2142 117.793 19.0456 118.185 18.918C118.586 18.7904 118.988 18.7266 119.389 18.7266C119.635 18.7266 119.849 18.7402 120.031 18.7676C120.213 18.7858 120.377 18.8177 120.523 18.8633C120.669 18.8997 120.801 18.9453 120.92 19C121.038 19.0456 121.152 19.0911 121.262 19.1367L120.592 21.748L120.359 21.6934C120.25 21.2923 120.045 20.9733 119.744 20.7363C119.443 20.4902 119.033 20.3672 118.514 20.3672C118.231 20.3672 117.935 20.4173 117.625 20.5176C117.315 20.6178 117.001 20.7591 116.682 20.9414C116.363 21.1146 116.043 21.3197 115.724 21.5566C115.405 21.7845 115.096 22.026 114.795 22.2812C114.777 22.5456 114.767 22.8327 114.767 23.1426C114.767 23.4525 114.767 23.7806 114.767 24.127V27.6543C114.767 28.429 114.777 29.1081 114.795 29.6914C114.813 30.2656 114.84 30.7624 114.877 31.1816C114.913 31.6009 114.954 31.9518 115 32.2344C115.045 32.5169 115.096 32.7539 115.15 32.9453V33H111.992V32.9453C112.047 32.7539 112.097 32.5169 112.142 32.2344C112.197 31.9518 112.238 31.6009 112.266 31.1816C112.302 30.7624 112.329 30.2656 112.348 29.6914C112.375 29.1081 112.389 28.429 112.389 27.6543V24.3457ZM121.713 28.9668C121.713 28.2467 121.859 27.6224 122.15 27.0938C122.451 26.5651 122.848 26.1139 123.34 25.7402C123.832 25.3665 124.392 25.0658 125.021 24.8379C125.65 24.6009 126.302 24.4186 126.976 24.291C127.651 24.1543 128.316 24.0632 128.973 24.0176C129.629 23.9629 130.23 23.931 130.777 23.9219V23.2246C130.777 22.623 130.7 22.1035 130.545 21.666C130.39 21.2285 130.171 20.8685 129.889 20.5859C129.606 20.2943 129.264 20.0801 128.863 19.9434C128.471 19.7975 128.038 19.7246 127.564 19.7246C127.236 19.7246 126.913 19.752 126.594 19.8066C126.275 19.8613 125.942 19.9525 125.596 20.0801C125.258 20.2077 124.898 20.3809 124.516 20.5996C124.142 20.8184 123.736 21.0964 123.299 21.4336L123.162 21.3516L124.092 19.4238C124.392 19.2871 124.689 19.1777 124.98 19.0957C125.272 19.0046 125.568 18.9316 125.869 18.877C126.17 18.8223 126.475 18.7858 126.785 18.7676C127.104 18.7402 127.437 18.7266 127.783 18.7266C128.74 18.7266 129.556 18.8451 130.23 19.082C130.914 19.3099 131.47 19.6289 131.898 20.0391C132.336 20.4401 132.655 20.9141 132.855 21.4609C133.056 21.9987 133.156 22.5775 133.156 23.1973V27.6543C133.156 28.429 133.165 29.1081 133.183 29.6914C133.211 30.2656 133.238 30.7624 133.266 31.1816C133.302 31.6009 133.343 31.9518 133.389 32.2344C133.443 32.5169 133.498 32.7539 133.553 32.9453V33H130.531V32.9453C130.577 32.7995 130.609 32.6354 130.627 32.4531C130.654 32.2708 130.677 32.0521 130.695 31.7969C130.504 31.9609 130.276 32.1296 130.012 32.3027C129.756 32.4759 129.46 32.6354 129.123 32.7812C128.795 32.918 128.426 33.0273 128.016 33.1094C127.614 33.2005 127.172 33.2461 126.689 33.2461C125.103 33.2461 123.877 32.877 123.012 32.1387C122.146 31.3913 121.713 30.334 121.713 28.9668ZM130.777 24.9883C129.948 24.9974 129.15 25.0475 128.385 25.1387C127.619 25.2207 126.94 25.3984 126.348 25.6719C125.764 25.9453 125.295 26.3372 124.939 26.8477C124.593 27.349 124.42 28.0189 124.42 28.8574C124.42 29.9329 124.689 30.7533 125.226 31.3184C125.764 31.8835 126.507 32.166 127.455 32.166C127.892 32.166 128.289 32.1068 128.644 31.9883C129.009 31.8607 129.328 31.7057 129.601 31.5234C129.884 31.332 130.121 31.127 130.312 30.9082C130.504 30.6803 130.65 30.4616 130.75 30.252C130.768 29.9056 130.777 29.5228 130.777 29.1035C130.777 28.6751 130.777 28.1921 130.777 27.6543V24.9883Z" fill="#1B2C4D"/>
<path d="M144.92 14.5703C144.902 15.5911 144.883 16.5801 144.865 17.5371C144.856 17.9473 144.847 18.3665 144.838 18.7949C144.838 19.2233 144.833 19.6471 144.824 20.0664C144.824 20.4766 144.82 20.873 144.81 21.2559C144.81 21.6296 144.81 21.9622 144.81 22.2539C144.81 22.8646 144.815 23.6029 144.824 24.4688C144.833 25.3346 144.842 26.2233 144.851 27.1348C144.87 28.0462 144.892 28.9212 144.92 29.7598C144.947 30.5983 144.979 31.2956 145.016 31.8516C145.143 31.8698 145.312 31.8926 145.521 31.9199C145.74 31.9382 145.968 31.9564 146.205 31.9746C146.442 31.9837 146.674 31.9928 146.902 32.002C147.13 32.0111 147.321 32.0156 147.476 32.0156C148.114 32.0156 148.766 31.9746 149.432 31.8926C150.106 31.8014 150.753 31.6374 151.373 31.4004C152.002 31.1634 152.59 30.8398 153.137 30.4297C153.693 30.0104 154.176 29.4727 154.586 28.8164C155.005 28.1602 155.333 27.3717 155.57 26.4512C155.807 25.5215 155.926 24.4277 155.926 23.1699C155.926 21.7754 155.757 20.5358 155.42 19.4512C155.083 18.3574 154.586 17.4368 153.93 16.6895C153.282 15.9421 152.476 15.377 151.51 14.9941C150.553 14.6022 149.45 14.4062 148.201 14.4062C147.955 14.4062 147.677 14.4154 147.367 14.4336C147.057 14.4427 146.747 14.4564 146.437 14.4746C146.137 14.4837 145.849 14.502 145.576 14.5293C145.312 14.5475 145.093 14.5612 144.92 14.5703ZM141.926 13.3398C142.135 13.349 142.331 13.3581 142.514 13.3672C142.668 13.3763 142.828 13.3854 142.992 13.3945C143.156 13.3945 143.288 13.3945 143.389 13.3945C143.562 13.3945 143.849 13.3854 144.25 13.3672C144.66 13.349 145.125 13.3307 145.644 13.3125C146.164 13.2943 146.702 13.276 147.258 13.2578C147.823 13.2396 148.351 13.2305 148.844 13.2305C150.165 13.2305 151.423 13.3945 152.617 13.7227C153.811 14.0508 154.859 14.5885 155.762 15.3359C156.664 16.0833 157.379 17.0632 157.908 18.2754C158.437 19.4876 158.701 20.9779 158.701 22.7461C158.701 24.013 158.56 25.1523 158.277 26.1641C158.004 27.1758 157.616 28.069 157.115 28.8438C156.614 29.6185 156.012 30.2839 155.31 30.8398C154.618 31.3867 153.848 31.8379 153 32.1934C152.161 32.5488 151.264 32.8086 150.307 32.9727C149.349 33.1367 148.361 33.2188 147.34 33.2188C146.975 33.2188 146.533 33.2051 146.014 33.1777C145.503 33.1595 144.988 33.1367 144.469 33.1094C143.949 33.082 143.457 33.0547 142.992 33.0273C142.536 33.0091 142.181 33 141.926 33V32.9453C141.98 32.7539 142.03 32.5169 142.076 32.2344C142.131 31.9518 142.176 31.6009 142.213 31.1816C142.249 30.7624 142.277 30.2656 142.295 29.6914C142.313 29.1081 142.322 28.429 142.322 27.6543V18.7539C142.322 17.9792 142.313 17.3001 142.295 16.7168C142.277 16.1243 142.249 15.6185 142.213 15.1992C142.176 14.7708 142.131 14.4108 142.076 14.1191C142.03 13.8275 141.98 13.5859 141.926 13.3945V13.3398ZM168.189 33.2461C167.178 33.2461 166.23 33.0866 165.346 32.7676C164.461 32.4486 163.691 31.9837 163.035 31.373C162.379 30.7533 161.859 29.9922 161.476 29.0898C161.103 28.1784 160.916 27.1393 160.916 25.9727C160.916 24.9427 161.089 23.9902 161.435 23.1152C161.782 22.2311 162.26 21.4655 162.871 20.8184C163.482 20.1712 164.193 19.6654 165.004 19.3008C165.824 18.9362 166.708 18.7539 167.656 18.7539C168.595 18.7539 169.465 18.918 170.267 19.2461C171.07 19.5651 171.762 20.0345 172.346 20.6543C172.938 21.265 173.403 22.026 173.74 22.9375C174.086 23.8398 174.273 24.8698 174.301 26.0273C173.271 26.0091 172.241 25.9954 171.211 25.9863C170.181 25.9772 169.11 25.9727 167.998 25.9727C167.205 25.9727 166.43 25.9772 165.674 25.9863C164.926 25.9954 164.252 26.0091 163.65 26.0273C163.705 26.9753 163.851 27.832 164.088 28.5977C164.334 29.3633 164.667 30.0195 165.086 30.5664C165.514 31.1042 166.029 31.5189 166.631 31.8105C167.241 32.1022 167.93 32.248 168.695 32.248C169.224 32.248 169.721 32.1888 170.185 32.0703C170.659 31.9427 171.088 31.7695 171.471 31.5508C171.853 31.332 172.195 31.0768 172.496 30.7852C172.797 30.4844 173.052 30.1608 173.262 29.8145L173.426 29.8965L172.414 32.3301C171.922 32.5853 171.334 32.804 170.65 32.9863C169.967 33.1595 169.146 33.2461 168.189 33.2461ZM166.371 24.9062C167.282 24.9062 168.194 24.9062 169.105 24.9062C170.026 24.8971 170.86 24.8789 171.607 24.8516C171.525 24.0586 171.37 23.3477 171.142 22.7188C170.915 22.0898 170.623 21.5566 170.267 21.1191C169.912 20.6816 169.493 20.3444 169.01 20.1074C168.527 19.8704 167.993 19.752 167.41 19.752C166.881 19.752 166.394 19.8704 165.947 20.1074C165.51 20.3353 165.127 20.668 164.799 21.1055C164.471 21.543 164.206 22.0807 164.006 22.7188C163.805 23.3477 163.687 24.0677 163.65 24.8789C164.06 24.8971 164.493 24.9062 164.949 24.9062C165.405 24.9062 165.879 24.9062 166.371 24.9062ZM183.42 21.748L183.228 21.7754C183.165 21.5658 183.06 21.3424 182.914 21.1055C182.777 20.8685 182.595 20.6497 182.367 20.4492C182.148 20.2487 181.879 20.0846 181.56 19.957C181.251 19.8203 180.891 19.752 180.48 19.752C180.198 19.752 179.929 19.793 179.674 19.875C179.428 19.957 179.209 20.0801 179.017 20.2441C178.835 20.3991 178.689 20.5951 178.58 20.832C178.471 21.069 178.416 21.347 178.416 21.666C178.416 22.1126 178.553 22.541 178.826 22.9512C179.109 23.3522 179.46 23.7533 179.879 24.1543C180.298 24.5462 180.749 24.9427 181.232 25.3438C181.724 25.7448 182.18 26.1641 182.599 26.6016C183.019 27.0391 183.365 27.5085 183.639 28.0098C183.921 28.502 184.062 29.0352 184.062 29.6094C184.062 30.0742 183.98 30.5299 183.816 30.9766C183.652 31.4141 183.397 31.806 183.051 32.1523C182.713 32.4987 182.276 32.7812 181.738 33C181.21 33.2096 180.576 33.3145 179.838 33.3145C179.4 33.3145 178.99 33.2734 178.607 33.1914C178.234 33.1094 177.887 33.0091 177.568 32.8906C177.258 32.763 176.976 32.6263 176.721 32.4805C176.474 32.3255 176.256 32.1797 176.064 32.043L176.201 29.4453H176.42C176.511 29.8737 176.648 30.2656 176.83 30.6211C177.012 30.9766 177.236 31.2819 177.5 31.5371C177.773 31.7832 178.083 31.9792 178.43 32.125C178.776 32.2617 179.154 32.3301 179.564 32.3301C180.239 32.3301 180.772 32.1432 181.164 31.7695C181.565 31.3958 181.766 30.9082 181.766 30.3066C181.766 29.8236 181.629 29.3815 181.355 28.9805C181.091 28.5703 180.754 28.1784 180.344 27.8047C179.933 27.431 179.491 27.0573 179.017 26.6836C178.553 26.3099 178.115 25.9134 177.705 25.4941C177.295 25.0658 176.953 24.6009 176.68 24.0996C176.415 23.5892 176.283 23.0104 176.283 22.3633C176.283 21.8346 176.379 21.3516 176.57 20.9141C176.771 20.4674 177.044 20.0892 177.391 19.7793C177.746 19.4603 178.165 19.2142 178.648 19.041C179.131 18.8678 179.66 18.7812 180.234 18.7812C180.991 18.7812 181.62 18.8633 182.121 19.0273C182.631 19.1823 183.019 19.3327 183.283 19.4785L183.42 21.748ZM187.248 24.3457C187.248 23.571 187.234 22.8965 187.207 22.3223C187.189 21.7389 187.161 21.2376 187.125 20.8184C187.098 20.3991 187.057 20.0482 187.002 19.7656C186.956 19.4831 186.906 19.2461 186.851 19.0547V19H190.01V19.0547C189.955 19.2461 189.905 19.4831 189.859 19.7656C189.814 20.0482 189.773 20.3991 189.736 20.8184C189.7 21.2376 189.672 21.7389 189.654 22.3223C189.636 22.8965 189.627 23.571 189.627 24.3457V27.6543C189.627 28.429 189.636 29.1081 189.654 29.6914C189.672 30.2656 189.7 30.7624 189.736 31.1816C189.773 31.6009 189.814 31.9518 189.859 32.2344C189.905 32.5169 189.955 32.7539 190.01 32.9453V33H186.851V32.9453C186.906 32.7539 186.956 32.5169 187.002 32.2344C187.057 31.9518 187.098 31.6009 187.125 31.1816C187.161 30.7624 187.189 30.2656 187.207 29.6914C187.234 29.1081 187.248 28.429 187.248 27.6543V24.3457ZM186.961 14.8574C186.961 14.6569 186.997 14.4701 187.07 14.2969C187.152 14.1146 187.257 13.9596 187.385 13.832C187.512 13.6953 187.663 13.5905 187.836 13.5176C188.018 13.4355 188.214 13.3945 188.424 13.3945C188.633 13.3945 188.825 13.4355 188.998 13.5176C189.18 13.5905 189.335 13.6953 189.463 13.832C189.599 13.9596 189.704 14.1146 189.777 14.2969C189.859 14.4701 189.9 14.6569 189.9 14.8574C189.9 15.2767 189.759 15.6276 189.476 15.9102C189.194 16.1927 188.843 16.334 188.424 16.334C188.214 16.334 188.018 16.2975 187.836 16.2246C187.663 16.1426 187.512 16.0378 187.385 15.9102C187.257 15.7734 187.152 15.6185 187.07 15.4453C186.997 15.263 186.961 15.0671 186.961 14.8574ZM199.211 39.248C199.949 39.248 200.573 39.166 201.084 39.002C201.594 38.847 202.014 38.6283 202.342 38.3457C202.679 38.0632 202.934 37.7214 203.107 37.3203C203.29 36.9284 203.422 36.4954 203.504 36.0215C203.595 35.5475 203.645 35.0417 203.654 34.5039C203.672 33.9661 203.682 33.4102 203.682 32.8359V32.3848C203.235 32.6217 202.697 32.8268 202.068 33C201.439 33.1641 200.728 33.2461 199.935 33.2461C198.851 33.2461 197.866 33.0775 196.982 32.7402C196.098 32.403 195.342 31.9199 194.713 31.291C194.093 30.6621 193.614 29.901 193.277 29.0078C192.94 28.1055 192.771 27.0938 192.771 25.9727C192.771 24.9427 192.935 23.9857 193.264 23.1016C193.601 22.2174 194.07 21.4518 194.672 20.8047C195.282 20.1576 196.007 19.6517 196.846 19.2871C197.693 18.9134 198.627 18.7266 199.648 18.7266C200.086 18.7266 200.487 18.763 200.851 18.8359C201.216 18.9089 201.553 19.0091 201.863 19.1367C202.182 19.2552 202.478 19.3965 202.752 19.5605C203.034 19.7155 203.308 19.8841 203.572 20.0664L203.435 19.0547V19H206.457V19.0547C206.402 19.2461 206.348 19.4831 206.293 19.7656C206.247 20.0482 206.206 20.3991 206.17 20.8184C206.142 21.2376 206.115 21.7389 206.088 22.3223C206.07 22.8965 206.06 23.571 206.06 24.3457V33.6426C206.06 34.4811 205.946 35.2969 205.719 36.0898C205.5 36.8919 205.122 37.6029 204.584 38.2227C204.055 38.8424 203.353 39.3392 202.478 39.7129C201.603 40.0866 200.514 40.2734 199.211 40.2734C198.755 40.2734 198.295 40.2279 197.83 40.1367C197.365 40.0547 196.923 39.9499 196.504 39.8223C196.085 39.7038 195.706 39.5716 195.369 39.4258C195.032 39.2799 194.763 39.1523 194.562 39.043L194.139 36.418L194.357 36.3633C194.576 36.8372 194.872 37.252 195.246 37.6074C195.629 37.972 196.043 38.2728 196.49 38.5098C196.937 38.7559 197.397 38.9382 197.871 39.0566C198.354 39.1842 198.801 39.248 199.211 39.248ZM200.551 32.248C201.207 32.248 201.799 32.1387 202.328 31.9199C202.866 31.7012 203.317 31.446 203.682 31.1543V24.3457C203.682 23.8353 203.677 23.375 203.668 22.9648C203.659 22.5456 203.654 22.1673 203.654 21.8301C203.435 21.4928 203.18 21.1966 202.889 20.9414C202.606 20.6771 202.301 20.4583 201.973 20.2852C201.654 20.1029 201.325 19.9661 200.988 19.875C200.651 19.7747 200.318 19.7246 199.99 19.7246C199.297 19.7246 198.673 19.8522 198.117 20.1074C197.561 20.3626 197.087 20.7318 196.695 21.2148C196.312 21.6888 196.016 22.2721 195.807 22.9648C195.606 23.6484 195.506 24.4277 195.506 25.3027C195.506 26.2871 195.615 27.2031 195.834 28.0508C196.053 28.8984 196.372 29.6367 196.791 30.2656C197.219 30.8854 197.748 31.373 198.377 31.7285C199.006 32.0749 199.73 32.248 200.551 32.248ZM219.678 23.7852C219.678 22.582 219.436 21.6979 218.953 21.1328C218.47 20.5677 217.823 20.2852 217.012 20.2852C216.72 20.2852 216.392 20.349 216.027 20.4766C215.663 20.5951 215.289 20.7591 214.906 20.9688C214.523 21.1693 214.141 21.4062 213.758 21.6797C213.375 21.9531 213.015 22.2448 212.678 22.5547L212.65 24.3457V27.6543C212.65 28.429 212.659 29.1081 212.678 29.6914C212.696 30.2656 212.723 30.7624 212.76 31.1816C212.796 31.6009 212.837 31.9518 212.883 32.2344C212.928 32.5169 212.978 32.7539 213.033 32.9453V33H209.875V32.9453C209.93 32.7539 209.98 32.5169 210.025 32.2344C210.08 31.9518 210.121 31.6009 210.148 31.1816C210.185 30.7624 210.212 30.2656 210.23 29.6914C210.258 29.1081 210.271 28.429 210.271 27.6543V24.3457C210.271 23.571 210.258 22.8965 210.23 22.3223C210.212 21.7389 210.185 21.2376 210.148 20.8184C210.121 20.3991 210.08 20.0482 210.025 19.7656C209.98 19.4831 209.93 19.2461 209.875 19.0547V19H213.033V19.0547C212.96 19.2826 212.901 19.5742 212.855 19.9297C212.819 20.276 212.778 20.7318 212.732 21.2969C213.106 20.987 213.507 20.6771 213.935 20.3672C214.373 20.0573 214.824 19.7839 215.289 19.5469C215.754 19.3008 216.228 19.1048 216.711 18.959C217.194 18.804 217.668 18.7266 218.133 18.7266C218.844 18.7266 219.445 18.8496 219.937 19.0957C220.439 19.3418 220.844 19.6654 221.154 20.0664C221.473 20.4674 221.701 20.9277 221.838 21.4473C221.984 21.9577 222.057 22.4772 222.057 23.0059V27.6543C222.057 28.429 222.066 29.1081 222.084 29.6914C222.102 30.2656 222.129 30.7624 222.166 31.1816C222.202 31.6009 222.243 31.9518 222.289 32.2344C222.335 32.5169 222.385 32.7539 222.439 32.9453V33H219.281V32.9453C219.336 32.7539 219.386 32.5169 219.432 32.2344C219.486 31.9518 219.527 31.6009 219.555 31.1816C219.591 30.7624 219.618 30.2656 219.637 29.6914C219.664 29.1081 219.678 28.429 219.678 27.6543V23.7852Z" fill="#436FC0"/>
</svg>
