<svg width="225" height="45" viewBox="0 0 225 45" fill="none" xmlns="http://www.w3.org/2000/svg">
<path d="M7.94373 24.4434L24.4425 40.9426" stroke="white" stroke-width="2"/>
<path d="M22.5273 23.4717L22.5273 7.91609" stroke="white" stroke-width="2"/>
<path d="M9.04449 35.1415C8.65397 35.532 8.65397 36.1652 9.04449 36.5557C9.43501 36.9463 10.0682 36.9463 10.4587 36.5557L9.04449 35.1415ZM22.8327 24.1814L23.5398 23.4742L22.1256 22.06L21.4185 22.7671L22.8327 24.1814ZM9.75159 35.8486L10.4587 36.5557L22.8327 24.1814L22.1256 23.4742L21.4185 22.7671L9.04449 35.1415L9.75159 35.8486Z" fill="white"/>
<path d="M24.4718 7.91602L40.9705 24.4152" stroke="white" stroke-width="2"/>
<path d="M2.22882 26.2703C4.31158 28.3531 7.68842 28.3531 9.77118 26.2703C11.854 24.1875 11.854 20.8106 9.77118 18.7277C7.68842 16.6449 4.31158 16.6449 2.22882 18.7277C0.146048 20.8106 0.146048 24.1875 2.22882 26.2703ZM18.7276 9.77112C20.8103 11.8539 24.1872 11.8539 26.2699 9.77112C28.3527 7.68829 28.3527 4.31137 26.2699 2.22854C24.1872 0.145717 20.8103 0.145717 18.7276 2.22854C16.6448 4.31137 16.6448 7.68829 18.7276 9.77112ZM6 22.499L6.7071 23.2061L23.2058 6.70695L22.4987 5.99983L21.7916 5.29271L5.2929 21.7919L6 22.499Z" fill="white"/>
<path d="M18.7562 42.7986C20.8389 44.8815 24.2158 44.8815 26.2985 42.7986C28.3813 40.7158 28.3813 37.3389 26.2985 35.2561C24.2158 33.1732 20.8389 33.1732 18.7562 35.2561C16.6734 37.3389 16.6734 40.7158 18.7562 42.7986ZM35.2549 26.2994C37.3377 28.3823 40.7145 28.3823 42.7973 26.2994C44.88 24.2166 44.88 20.8397 42.7973 18.7569C40.7145 16.674 37.3377 16.674 35.2549 18.7569C33.1721 20.8397 33.1721 24.2166 35.2549 26.2994ZM22.5273 39.0273L23.2344 39.7345L39.7332 23.2353L39.0261 22.5282L38.319 21.821L21.8202 38.3202L22.5273 39.0273Z" fill="white"/>
<path d="M68.4882 24.0928C68.1236 24.0837 67.6678 24.0791 67.121 24.0791C66.5741 24.07 65.9771 24.0609 65.33 24.0518C64.6919 24.0426 64.022 24.0381 63.3202 24.0381C62.6275 24.029 61.9484 24.0244 61.2831 24.0244C60.6177 24.0153 59.9843 24.0153 59.3827 24.0244C58.7811 24.0335 58.257 24.0472 57.8104 24.0654V28.126C57.8104 28.9007 57.8195 29.5798 57.8378 30.1631C57.8651 30.7373 57.8925 31.234 57.9198 31.6533C57.9563 32.0726 57.9973 32.4235 58.0428 32.7061C58.0975 32.9886 58.1522 33.2256 58.2069 33.417V33.4717H54.9257V33.417C54.9803 33.2256 55.0305 32.9886 55.076 32.7061C55.1307 32.4235 55.1763 32.0726 55.2128 31.6533C55.2492 31.234 55.2766 30.7373 55.2948 30.1631C55.313 29.5798 55.3221 28.9007 55.3221 28.126V19.2256C55.3221 18.4508 55.313 17.7764 55.2948 17.2021C55.2766 16.6188 55.2492 16.1175 55.2128 15.6982C55.1763 15.2699 55.1307 14.9144 55.076 14.6318C55.0305 14.3493 54.9803 14.1123 54.9257 13.9209V13.8662H58.2069V13.9209C58.1522 14.1123 58.0975 14.3493 58.0428 14.6318C57.9973 14.9144 57.9563 15.2699 57.9198 15.6982C57.8925 16.1175 57.8651 16.6188 57.8378 17.2021C57.8195 17.7764 57.8104 18.4508 57.8104 19.2256V22.7256C58.2844 22.7438 58.8221 22.7575 59.4237 22.7666C60.0253 22.7666 60.6542 22.7666 61.3104 22.7666C61.9667 22.7575 62.632 22.7484 63.3065 22.7393C63.9901 22.7301 64.6464 22.721 65.2753 22.7119C65.9133 22.6937 66.5057 22.6755 67.0526 22.6572C67.6086 22.639 68.0871 22.6208 68.4882 22.6025V19.2256C68.4882 18.4508 68.4745 17.7764 68.4471 17.2021C68.4289 16.6188 68.4016 16.1175 68.3651 15.6982C68.3378 15.2699 68.2968 14.9144 68.2421 14.6318C68.1965 14.3493 68.1464 14.1123 68.0917 13.9209V13.8662H71.3729V13.9209C71.3182 14.1123 71.2635 14.3493 71.2089 14.6318C71.1633 14.9144 71.1223 15.2699 71.0858 15.6982C71.0494 16.1175 71.022 16.6188 71.0038 17.2021C70.9856 17.7764 70.9764 18.4508 70.9764 19.2256V28.126C70.9764 28.9007 70.9856 29.5798 71.0038 30.1631C71.022 30.7373 71.0494 31.234 71.0858 31.6533C71.1223 32.0726 71.1633 32.4235 71.2089 32.7061C71.2635 32.9886 71.3182 33.2256 71.3729 33.417V33.4717H68.0917V33.417C68.1464 33.2256 68.1965 32.9886 68.2421 32.7061C68.2968 32.4235 68.3378 32.0726 68.3651 31.6533C68.4016 31.234 68.4289 30.7373 68.4471 30.1631C68.4745 29.5798 68.4882 28.9007 68.4882 28.126V24.0928ZM75.5292 24.8174C75.5292 24.0426 75.5155 23.3682 75.4882 22.7939C75.4699 22.2106 75.4426 21.7093 75.4061 21.29C75.3788 20.8708 75.3378 20.5199 75.2831 20.2373C75.2375 19.9548 75.1874 19.7178 75.1327 19.5264V19.4717H78.2909V19.5264C78.2362 19.7178 78.1861 19.9548 78.1405 20.2373C78.0949 20.5199 78.0539 20.8708 78.0175 21.29C77.981 21.7093 77.9537 22.2106 77.9354 22.7939C77.9172 23.3682 77.9081 24.0426 77.9081 24.8174V28.126C77.9081 28.9007 77.9172 29.5798 77.9354 30.1631C77.9537 30.7373 77.981 31.234 78.0175 31.6533C78.0539 32.0726 78.0949 32.4235 78.1405 32.7061C78.1861 32.9886 78.2362 33.2256 78.2909 33.417V33.4717H75.1327V33.417C75.1874 33.2256 75.2375 32.9886 75.2831 32.7061C75.3378 32.4235 75.3788 32.0726 75.4061 31.6533C75.4426 31.234 75.4699 30.7373 75.4882 30.1631C75.5155 29.5798 75.5292 28.9007 75.5292 28.126V24.8174ZM75.2421 15.3291C75.2421 15.1286 75.2785 14.9417 75.3514 14.7686C75.4335 14.5863 75.5383 14.4313 75.6659 14.3037C75.7935 14.167 75.9439 14.0622 76.1171 13.9893C76.2994 13.9072 76.4953 13.8662 76.705 13.8662C76.9146 13.8662 77.106 13.9072 77.2792 13.9893C77.4615 14.0622 77.6164 14.167 77.744 14.3037C77.8807 14.4313 77.9856 14.5863 78.0585 14.7686C78.1405 14.9417 78.1815 15.1286 78.1815 15.3291C78.1815 15.7484 78.0402 16.0993 77.7577 16.3818C77.4751 16.6644 77.1242 16.8057 76.705 16.8057C76.4953 16.8057 76.2994 16.7692 76.1171 16.6963C75.9439 16.6143 75.7935 16.5094 75.6659 16.3818C75.5383 16.2451 75.4335 16.0902 75.3514 15.917C75.2785 15.7347 75.2421 15.5387 75.2421 15.3291ZM82.201 18.3779C82.201 17.6032 82.1874 16.9287 82.16 16.3545C82.1418 15.7712 82.1145 15.2699 82.078 14.8506C82.0507 14.4313 82.0096 14.0804 81.955 13.7979C81.9094 13.5153 81.8593 13.2783 81.8046 13.0869V13.0322H84.9628V13.0869C84.9081 13.2783 84.858 13.5153 84.8124 13.7979C84.7668 14.0804 84.7258 14.4313 84.6893 14.8506C84.6529 15.2699 84.6255 15.7712 84.6073 16.3545C84.5891 16.9287 84.58 17.6032 84.58 18.3779V25.1865L89.0507 21.1807C89.8345 20.4971 90.2264 19.9274 90.2264 19.4717H93.3983V19.5264C93.1613 19.5993 92.9335 19.695 92.7147 19.8135C92.5051 19.9229 92.2909 20.055 92.0721 20.21C91.8625 20.3649 91.6392 20.5426 91.4022 20.7432C91.1744 20.9346 90.9237 21.1533 90.6503 21.3994L86.6444 25.0498L92.1405 31.5439C92.3046 31.7445 92.4823 31.9495 92.6737 32.1592C92.8651 32.3597 93.0565 32.5465 93.2479 32.7197C93.4393 32.8929 93.6262 33.0433 93.8085 33.1709C93.9908 33.2985 94.1594 33.3805 94.3143 33.417V33.4717H90.3495C90.3495 33.2347 90.2857 32.9886 90.1581 32.7334C90.0396 32.4782 89.8208 32.1546 89.5018 31.7627L84.58 25.9111V28.126C84.58 28.9007 84.5891 29.5798 84.6073 30.1631C84.6255 30.7373 84.6529 31.234 84.6893 31.6533C84.7258 32.0726 84.7668 32.4235 84.8124 32.7061C84.858 32.9886 84.9081 33.2256 84.9628 33.417V33.4717H81.8046V33.417C81.8593 33.2256 81.9094 32.9886 81.955 32.7061C82.0096 32.4235 82.0507 32.0726 82.078 31.6533C82.1145 31.234 82.1418 30.7373 82.16 30.1631C82.1874 29.5798 82.201 28.9007 82.201 28.126V18.3779ZM94.3964 26.4443C94.3964 25.4144 94.5878 24.4619 94.9706 23.5869C95.3534 22.7028 95.8775 21.9372 96.5428 21.29C97.2173 20.6429 98.0103 20.137 98.9218 19.7725C99.8332 19.4079 100.813 19.2256 101.861 19.2256C102.891 19.2256 103.857 19.3988 104.76 19.7451C105.671 20.0824 106.464 20.5654 107.139 21.1943C107.813 21.8232 108.342 22.5889 108.724 23.4912C109.116 24.3936 109.312 25.4053 109.312 26.5264C109.312 27.4652 109.148 28.3675 108.82 29.2334C108.492 30.0993 108.009 30.8649 107.371 31.5303C106.733 32.1956 105.949 32.7288 105.019 33.1299C104.099 33.5218 103.037 33.7178 101.834 33.7178C100.813 33.7178 99.8514 33.5492 98.9491 33.2119C98.0468 32.8747 97.2583 32.3916 96.5839 31.7627C95.9094 31.1338 95.3762 30.3727 94.9843 29.4795C94.5923 28.5771 94.3964 27.5654 94.3964 26.4443ZM102.148 32.7197C102.795 32.7197 103.388 32.5921 103.926 32.3369C104.473 32.0817 104.942 31.7126 105.334 31.2295C105.726 30.7464 106.031 30.1585 106.25 29.4658C106.469 28.7731 106.578 27.9893 106.578 27.1143C106.578 26.1299 106.473 25.2184 106.264 24.3799C106.054 23.5322 105.739 22.8031 105.32 22.1924C104.91 21.5726 104.391 21.0895 103.762 20.7432C103.133 20.3968 102.399 20.2236 101.56 20.2236C100.913 20.2236 100.321 20.3512 99.7831 20.6064C99.2453 20.8525 98.7759 21.2126 98.3749 21.6865C97.983 22.1605 97.6776 22.7438 97.4589 23.4365C97.2401 24.1201 97.1307 24.8994 97.1307 25.7744C97.1307 26.7588 97.2356 27.6748 97.4452 28.5225C97.6639 29.3701 97.983 30.1084 98.4022 30.7373C98.8215 31.3571 99.341 31.8447 99.9608 32.2002C100.59 32.5465 101.319 32.7197 102.148 32.7197ZM112.389 24.8174C112.389 24.0426 112.375 23.3682 112.348 22.7939C112.329 22.2106 112.302 21.7093 112.266 21.29C112.238 20.8708 112.197 20.5199 112.142 20.2373C112.097 19.9548 112.047 19.7178 111.992 19.5264V19.4717H115.15V19.5264C115.077 19.736 115.014 19.9912 114.959 20.292C114.913 20.5928 114.877 20.9801 114.849 21.4541C115.187 21.1715 115.538 20.8936 115.902 20.6201C116.267 20.3467 116.641 20.1051 117.023 19.8955C117.406 19.6859 117.793 19.5173 118.185 19.3896C118.586 19.262 118.988 19.1982 119.389 19.1982C119.635 19.1982 119.849 19.2119 120.031 19.2393C120.213 19.2575 120.377 19.2894 120.523 19.335C120.669 19.3714 120.801 19.417 120.92 19.4717C121.038 19.5173 121.152 19.5628 121.262 19.6084L120.592 22.2197L120.359 22.165C120.25 21.764 120.045 21.445 119.744 21.208C119.443 20.9619 119.033 20.8389 118.514 20.8389C118.231 20.8389 117.935 20.889 117.625 20.9893C117.315 21.0895 117.001 21.2308 116.682 21.4131C116.363 21.5863 116.043 21.7913 115.724 22.0283C115.405 22.2562 115.096 22.4977 114.795 22.7529C114.777 23.0173 114.767 23.3044 114.767 23.6143C114.767 23.9242 114.767 24.2523 114.767 24.5986V28.126C114.767 28.9007 114.777 29.5798 114.795 30.1631C114.813 30.7373 114.84 31.234 114.877 31.6533C114.913 32.0726 114.954 32.4235 115 32.7061C115.045 32.9886 115.096 33.2256 115.15 33.417V33.4717H111.992V33.417C112.047 33.2256 112.097 32.9886 112.142 32.7061C112.197 32.4235 112.238 32.0726 112.266 31.6533C112.302 31.234 112.329 30.7373 112.348 30.1631C112.375 29.5798 112.389 28.9007 112.389 28.126V24.8174ZM121.713 29.4385C121.713 28.7184 121.859 28.0941 122.15 27.5654C122.451 27.0368 122.848 26.5856 123.34 26.2119C123.832 25.8382 124.392 25.5374 125.021 25.3096C125.65 25.0726 126.302 24.8903 126.976 24.7627C127.651 24.626 128.316 24.5348 128.973 24.4893C129.629 24.4346 130.23 24.4027 130.777 24.3936V23.6963C130.777 23.0947 130.7 22.5752 130.545 22.1377C130.39 21.7002 130.171 21.3402 129.889 21.0576C129.606 20.766 129.264 20.5518 128.863 20.415C128.471 20.2692 128.038 20.1963 127.564 20.1963C127.236 20.1963 126.913 20.2236 126.594 20.2783C126.275 20.333 125.942 20.4242 125.596 20.5518C125.258 20.6794 124.898 20.8525 124.516 21.0713C124.142 21.29 123.736 21.568 123.299 21.9053L123.162 21.8232L124.092 19.8955C124.392 19.7588 124.689 19.6494 124.98 19.5674C125.272 19.4762 125.568 19.4033 125.869 19.3486C126.17 19.2939 126.475 19.2575 126.785 19.2393C127.104 19.2119 127.437 19.1982 127.783 19.1982C128.74 19.1982 129.556 19.3167 130.23 19.5537C130.914 19.7816 131.47 20.1006 131.898 20.5107C132.336 20.9118 132.655 21.3857 132.855 21.9326C133.056 22.4704 133.156 23.0492 133.156 23.6689V28.126C133.156 28.9007 133.165 29.5798 133.183 30.1631C133.211 30.7373 133.238 31.234 133.266 31.6533C133.302 32.0726 133.343 32.4235 133.389 32.7061C133.443 32.9886 133.498 33.2256 133.553 33.417V33.4717H130.531V33.417C130.577 33.2712 130.609 33.1071 130.627 32.9248C130.654 32.7425 130.677 32.5238 130.695 32.2686C130.504 32.4326 130.276 32.6012 130.012 32.7744C129.756 32.9476 129.46 33.1071 129.123 33.2529C128.795 33.3896 128.426 33.499 128.016 33.5811C127.614 33.6722 127.172 33.7178 126.689 33.7178C125.103 33.7178 123.877 33.3486 123.012 32.6104C122.146 31.863 121.713 30.8057 121.713 29.4385ZM130.777 25.46C129.948 25.4691 129.15 25.5192 128.385 25.6104C127.619 25.6924 126.94 25.8701 126.348 26.1436C125.764 26.417 125.295 26.8089 124.939 27.3193C124.593 27.8206 124.42 28.4906 124.42 29.3291C124.42 30.4046 124.689 31.2249 125.226 31.79C125.764 32.3551 126.507 32.6377 127.455 32.6377C127.892 32.6377 128.289 32.5785 128.644 32.46C129.009 32.3324 129.328 32.1774 129.601 31.9951C129.884 31.8037 130.121 31.5986 130.312 31.3799C130.504 31.152 130.65 30.9333 130.75 30.7236C130.768 30.3773 130.777 29.9945 130.777 29.5752C130.777 29.1468 130.777 28.6637 130.777 28.126V25.46Z" fill="white"/>
<path d="M144.92 15.042C144.902 16.0628 144.883 17.0518 144.865 18.0088C144.856 18.4189 144.847 18.8382 144.838 19.2666C144.838 19.695 144.833 20.1188 144.824 20.5381C144.824 20.9482 144.82 21.3447 144.81 21.7275C144.81 22.1012 144.81 22.4339 144.81 22.7256C144.81 23.3363 144.815 24.0745 144.824 24.9404C144.833 25.8063 144.842 26.695 144.851 27.6064C144.87 28.5179 144.892 29.3929 144.92 30.2314C144.947 31.07 144.979 31.7673 145.016 32.3232C145.143 32.3415 145.312 32.3643 145.521 32.3916C145.74 32.4098 145.968 32.4281 146.205 32.4463C146.442 32.4554 146.674 32.4645 146.902 32.4736C147.13 32.4827 147.321 32.4873 147.476 32.4873C148.114 32.4873 148.766 32.4463 149.432 32.3643C150.106 32.2731 150.753 32.109 151.373 31.8721C152.002 31.6351 152.59 31.3115 153.137 30.9014C153.693 30.4821 154.176 29.9443 154.586 29.2881C155.005 28.6318 155.333 27.8434 155.57 26.9229C155.807 25.9932 155.926 24.8994 155.926 23.6416C155.926 22.2471 155.757 21.0075 155.42 19.9229C155.083 18.8291 154.586 17.9085 153.93 17.1611C153.282 16.4137 152.476 15.8486 151.51 15.4658C150.553 15.0739 149.45 14.8779 148.201 14.8779C147.955 14.8779 147.677 14.887 147.367 14.9053C147.057 14.9144 146.747 14.9281 146.437 14.9463C146.137 14.9554 145.849 14.9736 145.576 15.001C145.312 15.0192 145.093 15.0329 144.92 15.042ZM141.926 13.8115C142.135 13.8206 142.331 13.8298 142.514 13.8389C142.668 13.848 142.828 13.8571 142.992 13.8662C143.156 13.8662 143.288 13.8662 143.389 13.8662C143.562 13.8662 143.849 13.8571 144.25 13.8389C144.66 13.8206 145.125 13.8024 145.644 13.7842C146.164 13.766 146.702 13.7477 147.258 13.7295C147.823 13.7113 148.351 13.7021 148.844 13.7021C150.165 13.7021 151.423 13.8662 152.617 14.1943C153.811 14.5225 154.859 15.0602 155.762 15.8076C156.664 16.555 157.379 17.5348 157.908 18.7471C158.437 19.9593 158.701 21.4495 158.701 23.2178C158.701 24.4847 158.56 25.624 158.277 26.6357C158.004 27.6475 157.616 28.5407 157.115 29.3154C156.614 30.0902 156.012 30.7555 155.31 31.3115C154.618 31.8584 153.848 32.3096 153 32.665C152.161 33.0205 151.264 33.2803 150.307 33.4443C149.349 33.6084 148.361 33.6904 147.34 33.6904C146.975 33.6904 146.533 33.6768 146.014 33.6494C145.503 33.6312 144.988 33.6084 144.469 33.5811C143.949 33.5537 143.457 33.5264 142.992 33.499C142.536 33.4808 142.181 33.4717 141.926 33.4717V33.417C141.98 33.2256 142.03 32.9886 142.076 32.7061C142.131 32.4235 142.176 32.0726 142.213 31.6533C142.249 31.234 142.277 30.7373 142.295 30.1631C142.313 29.5798 142.322 28.9007 142.322 28.126V19.2256C142.322 18.4508 142.313 17.7718 142.295 17.1885C142.277 16.596 142.249 16.0902 142.213 15.6709C142.176 15.2425 142.131 14.8825 142.076 14.5908C142.03 14.2992 141.98 14.0576 141.926 13.8662V13.8115ZM168.189 33.7178C167.178 33.7178 166.23 33.5583 165.346 33.2393C164.461 32.9202 163.691 32.4554 163.035 31.8447C162.379 31.2249 161.859 30.4639 161.476 29.5615C161.103 28.6501 160.916 27.611 160.916 26.4443C160.916 25.4144 161.089 24.4619 161.435 23.5869C161.782 22.7028 162.26 21.9372 162.871 21.29C163.482 20.6429 164.193 20.137 165.004 19.7725C165.824 19.4079 166.708 19.2256 167.656 19.2256C168.595 19.2256 169.465 19.3896 170.267 19.7178C171.07 20.0368 171.762 20.5062 172.346 21.126C172.938 21.7367 173.403 22.4977 173.74 23.4092C174.086 24.3115 174.273 25.3415 174.301 26.499C173.271 26.4808 172.241 26.4671 171.211 26.458C170.181 26.4489 169.11 26.4443 167.998 26.4443C167.205 26.4443 166.43 26.4489 165.674 26.458C164.926 26.4671 164.252 26.4808 163.65 26.499C163.705 27.4469 163.851 28.3037 164.088 29.0693C164.334 29.835 164.667 30.4912 165.086 31.0381C165.514 31.5758 166.029 31.9906 166.631 32.2822C167.241 32.5739 167.93 32.7197 168.695 32.7197C169.224 32.7197 169.721 32.6605 170.185 32.542C170.659 32.4144 171.088 32.2412 171.471 32.0225C171.853 31.8037 172.195 31.5485 172.496 31.2568C172.797 30.9561 173.052 30.6325 173.262 30.2861L173.426 30.3682L172.414 32.8018C171.922 33.057 171.334 33.2757 170.65 33.458C169.967 33.6312 169.146 33.7178 168.189 33.7178ZM166.371 25.3779C167.282 25.3779 168.194 25.3779 169.105 25.3779C170.026 25.3688 170.86 25.3506 171.607 25.3232C171.525 24.5303 171.37 23.8193 171.142 23.1904C170.915 22.5615 170.623 22.0283 170.267 21.5908C169.912 21.1533 169.493 20.8161 169.01 20.5791C168.527 20.3421 167.993 20.2236 167.41 20.2236C166.881 20.2236 166.394 20.3421 165.947 20.5791C165.51 20.807 165.127 21.1396 164.799 21.5771C164.471 22.0146 164.206 22.5524 164.006 23.1904C163.805 23.8193 163.687 24.5394 163.65 25.3506C164.06 25.3688 164.493 25.3779 164.949 25.3779C165.405 25.3779 165.879 25.3779 166.371 25.3779ZM183.42 22.2197L183.228 22.2471C183.165 22.0374 183.06 21.8141 182.914 21.5771C182.777 21.3402 182.595 21.1214 182.367 20.9209C182.148 20.7204 181.879 20.5563 181.56 20.4287C181.251 20.292 180.891 20.2236 180.48 20.2236C180.198 20.2236 179.929 20.2646 179.674 20.3467C179.428 20.4287 179.209 20.5518 179.017 20.7158C178.835 20.8708 178.689 21.0667 178.58 21.3037C178.471 21.5407 178.416 21.8187 178.416 22.1377C178.416 22.5843 178.553 23.0127 178.826 23.4229C179.109 23.8239 179.46 24.2249 179.879 24.626C180.298 25.0179 180.749 25.4144 181.232 25.8154C181.724 26.2165 182.18 26.6357 182.599 27.0732C183.019 27.5107 183.365 27.9801 183.639 28.4814C183.921 28.9736 184.062 29.5068 184.062 30.0811C184.062 30.5459 183.98 31.0016 183.816 31.4482C183.652 31.8857 183.397 32.2777 183.051 32.624C182.713 32.9704 182.276 33.2529 181.738 33.4717C181.21 33.6813 180.576 33.7861 179.838 33.7861C179.4 33.7861 178.99 33.7451 178.607 33.6631C178.234 33.5811 177.887 33.4808 177.568 33.3623C177.258 33.2347 176.976 33.098 176.721 32.9521C176.474 32.7972 176.256 32.6514 176.064 32.5146L176.201 29.917H176.42C176.511 30.3454 176.648 30.7373 176.83 31.0928C177.012 31.4482 177.236 31.7536 177.5 32.0088C177.773 32.2549 178.083 32.4508 178.43 32.5967C178.776 32.7334 179.154 32.8018 179.564 32.8018C180.239 32.8018 180.772 32.6149 181.164 32.2412C181.565 31.8675 181.766 31.3799 181.766 30.7783C181.766 30.2952 181.629 29.8532 181.355 29.4521C181.091 29.042 180.754 28.6501 180.344 28.2764C179.933 27.9027 179.491 27.529 179.017 27.1553C178.553 26.7816 178.115 26.3851 177.705 25.9658C177.295 25.5374 176.953 25.0726 176.68 24.5713C176.415 24.0609 176.283 23.4821 176.283 22.835C176.283 22.3063 176.379 21.8232 176.57 21.3857C176.771 20.9391 177.044 20.5609 177.391 20.251C177.746 19.932 178.165 19.6859 178.648 19.5127C179.131 19.3395 179.66 19.2529 180.234 19.2529C180.991 19.2529 181.62 19.335 182.121 19.499C182.631 19.654 183.019 19.8044 183.283 19.9502L183.42 22.2197ZM187.248 24.8174C187.248 24.0426 187.234 23.3682 187.207 22.7939C187.189 22.2106 187.161 21.7093 187.125 21.29C187.098 20.8708 187.057 20.5199 187.002 20.2373C186.956 19.9548 186.906 19.7178 186.851 19.5264V19.4717H190.01V19.5264C189.955 19.7178 189.905 19.9548 189.859 20.2373C189.814 20.5199 189.773 20.8708 189.736 21.29C189.7 21.7093 189.672 22.2106 189.654 22.7939C189.636 23.3682 189.627 24.0426 189.627 24.8174V28.126C189.627 28.9007 189.636 29.5798 189.654 30.1631C189.672 30.7373 189.7 31.234 189.736 31.6533C189.773 32.0726 189.814 32.4235 189.859 32.7061C189.905 32.9886 189.955 33.2256 190.01 33.417V33.4717H186.851V33.417C186.906 33.2256 186.956 32.9886 187.002 32.7061C187.057 32.4235 187.098 32.0726 187.125 31.6533C187.161 31.234 187.189 30.7373 187.207 30.1631C187.234 29.5798 187.248 28.9007 187.248 28.126V24.8174ZM186.961 15.3291C186.961 15.1286 186.997 14.9417 187.07 14.7686C187.152 14.5863 187.257 14.4313 187.385 14.3037C187.512 14.167 187.663 14.0622 187.836 13.9893C188.018 13.9072 188.214 13.8662 188.424 13.8662C188.633 13.8662 188.825 13.9072 188.998 13.9893C189.18 14.0622 189.335 14.167 189.463 14.3037C189.599 14.4313 189.704 14.5863 189.777 14.7686C189.859 14.9417 189.9 15.1286 189.9 15.3291C189.9 15.7484 189.759 16.0993 189.476 16.3818C189.194 16.6644 188.843 16.8057 188.424 16.8057C188.214 16.8057 188.018 16.7692 187.836 16.6963C187.663 16.6143 187.512 16.5094 187.385 16.3818C187.257 16.2451 187.152 16.0902 187.07 15.917C186.997 15.7347 186.961 15.5387 186.961 15.3291ZM199.211 39.7197C199.949 39.7197 200.573 39.6377 201.084 39.4736C201.594 39.3187 202.014 39.0999 202.342 38.8174C202.679 38.5348 202.934 38.193 203.107 37.792C203.29 37.4001 203.422 36.9671 203.504 36.4932C203.595 36.0192 203.645 35.5133 203.654 34.9756C203.672 34.4378 203.682 33.8818 203.682 33.3076V32.8564C203.235 33.0934 202.697 33.2985 202.068 33.4717C201.439 33.6357 200.728 33.7178 199.935 33.7178C198.851 33.7178 197.866 33.5492 196.982 33.2119C196.098 32.8747 195.342 32.3916 194.713 31.7627C194.093 31.1338 193.614 30.3727 193.277 29.4795C192.94 28.5771 192.771 27.5654 192.771 26.4443C192.771 25.4144 192.935 24.4574 193.264 23.5732C193.601 22.6891 194.07 21.9235 194.672 21.2764C195.282 20.6292 196.007 20.1234 196.846 19.7588C197.693 19.3851 198.627 19.1982 199.648 19.1982C200.086 19.1982 200.487 19.2347 200.851 19.3076C201.216 19.3805 201.553 19.4808 201.863 19.6084C202.182 19.7269 202.478 19.8682 202.752 20.0322C203.034 20.1872 203.308 20.3558 203.572 20.5381L203.435 19.5264V19.4717H206.457V19.5264C206.402 19.7178 206.348 19.9548 206.293 20.2373C206.247 20.5199 206.206 20.8708 206.17 21.29C206.142 21.7093 206.115 22.2106 206.088 22.7939C206.07 23.3682 206.06 24.0426 206.06 24.8174V34.1143C206.06 34.9528 205.946 35.7686 205.719 36.5615C205.5 37.3636 205.122 38.0745 204.584 38.6943C204.055 39.3141 203.353 39.8109 202.478 40.1846C201.603 40.5583 200.514 40.7451 199.211 40.7451C198.755 40.7451 198.295 40.6995 197.83 40.6084C197.365 40.5264 196.923 40.4215 196.504 40.2939C196.085 40.1755 195.706 40.0433 195.369 39.8975C195.032 39.7516 194.763 39.624 194.562 39.5146L194.139 36.8896L194.357 36.835C194.576 37.3089 194.872 37.7236 195.246 38.0791C195.629 38.4437 196.043 38.7445 196.49 38.9814C196.937 39.2275 197.397 39.4098 197.871 39.5283C198.354 39.6559 198.801 39.7197 199.211 39.7197ZM200.551 32.7197C201.207 32.7197 201.799 32.6104 202.328 32.3916C202.866 32.1729 203.317 31.9176 203.682 31.626V24.8174C203.682 24.307 203.677 23.8467 203.668 23.4365C203.659 23.0173 203.654 22.639 203.654 22.3018C203.435 21.9645 203.18 21.6683 202.889 21.4131C202.606 21.1488 202.301 20.93 201.973 20.7568C201.654 20.5745 201.325 20.4378 200.988 20.3467C200.651 20.2464 200.318 20.1963 199.99 20.1963C199.297 20.1963 198.673 20.3239 198.117 20.5791C197.561 20.8343 197.087 21.2035 196.695 21.6865C196.312 22.1605 196.016 22.7438 195.807 23.4365C195.606 24.1201 195.506 24.8994 195.506 25.7744C195.506 26.7588 195.615 27.6748 195.834 28.5225C196.053 29.3701 196.372 30.1084 196.791 30.7373C197.219 31.3571 197.748 31.8447 198.377 32.2002C199.006 32.5465 199.73 32.7197 200.551 32.7197ZM219.678 24.2568C219.678 23.0537 219.436 22.1696 218.953 21.6045C218.47 21.0394 217.823 20.7568 217.012 20.7568C216.72 20.7568 216.392 20.8206 216.027 20.9482C215.663 21.0667 215.289 21.2308 214.906 21.4404C214.523 21.641 214.141 21.8779 213.758 22.1514C213.375 22.4248 213.015 22.7165 212.678 23.0264L212.65 24.8174V28.126C212.65 28.9007 212.659 29.5798 212.678 30.1631C212.696 30.7373 212.723 31.234 212.76 31.6533C212.796 32.0726 212.837 32.4235 212.883 32.7061C212.928 32.9886 212.978 33.2256 213.033 33.417V33.4717H209.875V33.417C209.93 33.2256 209.98 32.9886 210.025 32.7061C210.08 32.4235 210.121 32.0726 210.148 31.6533C210.185 31.234 210.212 30.7373 210.23 30.1631C210.258 29.5798 210.271 28.9007 210.271 28.126V24.8174C210.271 24.0426 210.258 23.3682 210.23 22.7939C210.212 22.2106 210.185 21.7093 210.148 21.29C210.121 20.8708 210.08 20.5199 210.025 20.2373C209.98 19.9548 209.93 19.7178 209.875 19.5264V19.4717H213.033V19.5264C212.96 19.7542 212.901 20.0459 212.855 20.4014C212.819 20.7477 212.778 21.2035 212.732 21.7686C213.106 21.4587 213.507 21.1488 213.935 20.8389C214.373 20.529 214.824 20.2555 215.289 20.0186C215.754 19.7725 216.228 19.5765 216.711 19.4307C217.194 19.2757 217.668 19.1982 218.133 19.1982C218.844 19.1982 219.445 19.3213 219.937 19.5674C220.439 19.8135 220.844 20.137 221.154 20.5381C221.473 20.9391 221.701 21.3994 221.838 21.9189C221.984 22.4294 222.057 22.9489 222.057 23.4775V28.126C222.057 28.9007 222.066 29.5798 222.084 30.1631C222.102 30.7373 222.129 31.234 222.166 31.6533C222.202 32.0726 222.243 32.4235 222.289 32.7061C222.335 32.9886 222.385 33.2256 222.439 33.417V33.4717H219.281V33.417C219.336 33.2256 219.386 32.9886 219.432 32.7061C219.486 32.4235 219.527 32.0726 219.555 31.6533C219.591 31.234 219.618 30.7373 219.637 30.1631C219.664 29.5798 219.678 28.9007 219.678 28.126V24.2568Z" fill="white"/>
</svg>
